<svg xmlns="http://www.w3.org/2000/svg" viewBox="0 0 512 512">
  <defs>
    <linearGradient id="bg" x1="0%" y1="0%" x2="100%" y2="100%">
      <stop offset="0%" style="stop-color:#2563eb"/>
      <stop offset="100%" style="stop-color:#1d4ed8"/>
    </linearGradient>
  </defs>
  <!-- Background -->
  <rect width="512" height="512" rx="96" fill="url(#bg)"/>
  <!-- C letter stylized as a hand/work symbol -->
  <g fill="white">
    <!-- Main C shape -->
    <path d="M340 160c0 0-40-40-100-40c-77 0-140 63-140 140s63 140 140 140c60 0 100-40 100-40l-30-50c0 0-30 30-70 30c-50 0-90-40-90-80s40-80 90-80c40 0 70 30 70 30L340 160z"/>
    <!-- Hand/work accent -->
    <circle cx="380" cy="200" r="24"/>
    <rect x="368" y="220" width="24" height="60" rx="12"/>
  </g>
</svg>
